<svg xmlns="http://www.w3.org/2000/svg" xmlns:xlink="http://www.w3.org/1999/xlink" width="0" height="0" style="position:absolute">

    <symbol id="icon-google" viewBox="0 0 30.72 30.72">
        <path d="M10.384 11.43c.193 1.464 1.252 2.677 2.366 2.71 1.114.034 1.862-1.126 1.669-2.589s-1.252-2.638-2.366-2.671c-1.114-.034-1.861 1.086-1.669 2.55zM12.602 16.98c-1.66-.018-3.148 1.012-3.148 2.249 0 1.262 1.199 2.313 2.859 2.313 2.334 0 3.148-.986 3.148-2.249 0-.152-.019-.301-.053-.446-.182-.714-.829-1.068-1.73-1.695-.327-.105-.688-.167-1.076-.172zM15.303 0c-8.483 0-15.36 6.877-15.36 15.36s6.877 15.36 15.36 15.36 15.36-6.877 15.36-15.36-6.877-15.36-15.36-15.36zm1.616 8.267l-.968.699h-1.371c.91.35 1.394 1.411 1.394 2.499 0 .914-.506 1.7-1.222 2.259-.698.545-.83.774-.83 1.237 0 .395.748 1.068 1.139 1.345 1.143.808 1.513 1.559 1.513 2.811 0 1.562-1.512 3.116-4.251 3.116-2.402 0-4.429-.977-4.429-2.54 0-1.586 1.849-3.116 4.251-3.116l.75-.007c-.329-.32-.589-.711-.589-1.195 0-.287.091-.563.22-.808l-.401.012c-1.973 0-3.295-1.404-3.295-3.143 0-1.702 1.825-3.171 3.764-3.171 1.08.002 4.316.002 4.325.002zm7.506 4.133h-3.1v3.1h-1.033v-3.1h-3.1v-1.033h3.1v-3.1h1.033v3.1h3.1v1.033z"/>
    </symbol>

    <symbol id="icon-hotel" viewBox="289.8 371.4 32 48">
        <path d="M321.8 387.4c0-8.8-7.2-16-16-16s-16 7.2-16 16c0 6.7 4.1 12.4 9.9 14.8l5.5 16.7c.1.3.4.5.7.5.3 0 .6-.2.7-.5l5.4-16.7c5.7-2.4 9.8-8.1 9.8-14.8zm-15.9 29.1l-4.5-13.6c1.4.4 2.9.6 4.5.6s3-.2 4.5-.6l-4.5 13.6zm-.1-14.5c-8.1 0-14.6-6.5-14.6-14.6s6.5-14.6 14.6-14.6 14.6 6.5 14.6 14.6-6.5 14.6-14.6 14.6z"/>
    </symbol>

    <symbol id="icon-linkedin" viewBox="0 0 30.72 30.72">
        <path d="M15.36 0c-8.483 0-15.36 6.877-15.36 15.36s6.877 15.36 15.36 15.36 15.36-6.877 15.36-15.36-6.877-15.36-15.36-15.36zm-3.76 21.726h-3.11v-10.008h3.11v10.008zm-1.574-11.236c-.982 0-1.618-.698-1.618-1.557 0-.88.654-1.555 1.658-1.555s1.618.675 1.637 1.555c.002.861-.634 1.557-1.677 1.557zm12.932 11.236h-3.109v-5.547c0-1.29-.451-2.168-1.576-2.168-.859 0-1.37.594-1.597 1.166-.082.203-.102.491-.102.776v5.771h-3.112v-6.816c0-1.248-.04-2.293-.082-3.192h2.701l.144 1.39h.061c.41-.654 1.413-1.616 3.091-1.616 2.046 0 3.581 1.37 3.581 4.317v5.919z"/>
    </symbol>

    <symbol id="icon-schedule" viewBox="0 0 46 46">
        <path d="M9.8 39.6c-.4-.3-.9-.2-1.3.1-.3.4-.2.9.1 1.3l1.2.9c.2.1.3.2.5.2.3 0 .6-.1.7-.4.3-.4.2-1-.2-1.2l-1-.9zM23 0c-12.7 0-23 10.3-23 23 0 5.6 2 11 5.7 15.2.3.4.9.4 1.3.1.4-.3.4-.9.1-1.3-3.4-3.9-5.3-8.8-5.3-14 0-11.7 9.5-21.2 21.2-21.2s21.2 9.5 21.2 21.2-9.5 21.2-21.2 21.2c-2.9 0-5.8-.6-8.5-1.8-.5-.2-1 0-1.2.5-.2.5 0 1 .5 1.2 2.9 1.3 6 1.9 9.2 1.9 12.7 0 23-10.3 23-23s-10.4-23-23-23zM22.3 23.6l8.3 9c.2.2.4.3.7.3.2 0 .4-.1.6-.2.4-.3.4-.9 0-1.3l-8.1-8.7v-15.5c0-.5-.4-.9-.9-.9s-.9.4-.9.9v15.9c.1.2.2.4.3.5z"/>
    </symbol>

    <symbol id="icon-speaker" viewBox="0 0 25.2 48">
        <path d="M12.6 39.1c-5.5 0-9.9-4.7-9.9-10.5v-18.1c0-5.8 4.5-10.5 9.9-10.5s9.9 4.7 9.9 10.5v18.1c0 5.8-4.4 10.5-9.9 10.5zm0-37.8c-4.7 0-8.6 4.1-8.6 9.1v18.1c0 5 3.9 9.1 8.6 9.1s8.6-4.1 8.6-9.1v-18.1c0-5-3.9-9.1-8.6-9.1zM11.9 48h-6.8c-.4 0-.7-.3-.7-.7 0-.4.3-.7.7-.7h6.1v-4.6c-6.3-.8-11.2-6.1-11.2-12.5v-7.4c0-.4.3-.7.7-.7.4 0 .7.3.7.7v7.4c0 5.8 4.6 10.8 10.5 11.2.4 0 .6.3.6.7v5.8c0 .5-.3.8-.6.8zM20 48h-6.4c-.4 0-.7-.3-.7-.7v-5.8c0-.4.3-.6.6-.7 5.8-.4 10.3-5.3 10.3-11.2v-7.4c0-.4.3-.7.7-.7.4 0 .7.3.7.7v7.4c0 6.3-4.7 11.7-10.9 12.5v4.6h5.7c.4 0 .7.3.7.7s-.3.6-.7.6z"/>
    </symbol>

    <symbol id="icon-sponsor" viewBox="0 0 34.8 48">
        <path d="M33.9 48c-.2 0-.4-.1-.6-.2l-15.9-12-15.9 12c-.3.2-.7.2-1 .1-.3-.2-.5-.5-.5-.8v-46.2c0-.5.4-.9.9-.9h33c.5 0 .9.4.9.9v46.2c0 .3-.2.7-.5.8-.2.1-.3.1-.4.1zm-16.5-14.3c.2 0 .4.1.6.2l15 11.3v-43.3h-31.1v43.4l15-11.3c.1-.2.3-.3.5-.3zM23.4 28.9c-.1 0-.3 0-.4-.1l-5.6-3-5.6 3c-.3.2-.7.1-1-.1s-.4-.6-.4-.9l1.1-6.3-4.6-4.4c-.3-.2-.3-.6-.2-.9.1-.3.4-.6.7-.6l6.3-.9 2.8-5.7c.2-.3.5-.5.8-.5s.7.2.8.5l2.8 5.7 6.3.9c.3.1.6.3.7.6.1.3 0 .7-.2.9l-4.6 4.4 1.1 6.3c.1.3-.1.7-.4.9 0 .1-.2.2-.4.2zm-13.9-11.8l3.6 3.5c.2.2.3.5.3.8l-.8 4.9 4.4-2.3c.3-.1.6-.1.9 0l4.4 2.3-.8-4.9c-.1-.3 0-.6.3-.8l3.6-3.5-4.9-.7c-.3 0-.6-.2-.7-.5l-2.2-4.5-2.2 4.5c-.1.3-.4.5-.7.5l-5.2.7z"/>
    </symbol>

    <symbol id="icon-twitter" viewBox="0 0 30.72 30.72">
        <path d="M15.36 0c-8.483 0-15.36 6.877-15.36 15.36s6.877 15.36 15.36 15.36 15.36-6.877 15.36-15.36-6.877-15.36-15.36-15.36zm6.246 12.584l.01.392c0 3.997-3.043 8.606-8.608 8.606-1.707 0-3.299-.499-4.637-1.36.237.029.478.042.722.042 1.418 0 2.722-.483 3.758-1.296-1.323-.024-2.442-.899-2.827-2.099.184.035.374.054.568.054.277 0 .544-.037.797-.106-1.382-.278-2.427-1.501-2.427-2.966l.002-.037c.408.226.875.362 1.37.378-.81-.542-1.344-1.467-1.344-2.518 0-.555.149-1.075.41-1.522 1.491 1.832 3.722 3.037 6.235 3.162-.051-.221-.078-.451-.078-.69 0-1.67 1.355-3.026 3.026-3.026.87 0 1.656.366 2.208.955.69-.134 1.338-.386 1.922-.733-.227.706-.706 1.299-1.331 1.674.613-.074 1.195-.235 1.738-.477-.405.606-.92 1.139-1.51 1.566l-.004.001z"/>
    </symbol>

    <symbol id="icon-venue" viewBox="288.9 373 35 46">
        <path d="M306.4 397.9c-4.3 0-7.8-3.5-7.8-7.8s3.5-7.8 7.8-7.8 7.8 3.5 7.8 7.8-3.5 7.8-7.8 7.8zm0-13.8c-3.3 0-6 2.7-6 6s2.7 6 6 6 6-2.7 6-6c.1-3.3-2.6-6-6-6zM306.5 419h-.1c-1.5 0-2.7-1.2-2.9-1.4-7-8.1-14.6-17.6-14.6-27.1 0-9.6 7.8-17.5 17.5-17.5 9.6 0 17.5 7.8 17.5 17.5 0 9.6-7.5 19-14.6 27.1 0 0-1.2 1.4-2.8 1.4zm-1.6-2.6s.8.8 1.5.8h.1c.7 0 1.3-.6 1.5-.8 6.8-7.9 14.1-17 14.1-26 0-8.7-7-15.7-15.7-15.7s-15.7 7-15.7 15.7c0 9 7.3 18.1 14.2 26z"/>
    </symbol>

    <symbol id="icon-youtube" viewBox="0 0 30.72 30.72">
        <path d="M15.36 0c-8.483 0-15.36 6.877-15.36 15.36s6.877 15.36 15.36 15.36 15.36-6.877 15.36-15.36-6.877-15.36-15.36-15.36zm-6.828 18.588c0-1.48.082-2.587.247-3.32.089-.373.272-.686.55-.939.278-.253.604-.401.977-.446 1.157-.126 2.909-.19 5.256-.19s4.101.063 5.265.19c.367.044.691.193.972.446s.463.566.546.939c.164.708.247 1.815.247 3.32 0 1.48-.082 2.587-.247 3.32-.089.373-.272.686-.55.939-.278.253-.601.398-.967.436-1.164.133-2.919.199-5.265.199s-4.101-.066-5.265-.199c-.367-.038-.691-.183-.972-.436s-.463-.566-.546-.939c-.166-.708-.248-1.815-.248-3.32zm1.053-2.363h.996v5.398h.949v-5.398h1.015v-.892h-2.96v.892zm1.214-9.742h1.006l.674 2.495.645-2.495h.967l-1.148 3.785v2.571h-.949v-2.571c-.089-.468-.281-1.138-.579-2.011-.234-.652-.439-1.243-.616-1.774zm1.869 14.164c0 .31.025.541.076.693.076.234.259.351.55.351.304 0 .626-.193.967-.579v.512h.844v-4.686h-.844v3.586c-.19.266-.37.398-.541.398-.114 0-.18-.066-.199-.199l-.01-.332v-3.453h-.844v3.709h.001zm1.432-9.345v-1.66c0-.506.089-.876.266-1.11.24-.323.573-.484.996-.484.436 0 .772.161 1.006.484.177.234.266.604.266 1.11v1.66c0 .512-.089.885-.266 1.119-.234.323-.569.484-1.006.484-.424 0-.756-.161-.996-.484-.177-.24-.266-.613-.266-1.119zm.854.161c0 .443.136.664.408.664.272 0 .408-.221.408-.664v-1.992c0-.436-.136-.655-.408-.655-.272 0-.408.218-.408.655v1.992zm.892 10.161h.844v-.455c.285.348.579.522.882.522.341 0 .566-.174.674-.522.057-.171.086-.487.086-.949v-1.87c0-.462-.029-.775-.086-.939-.108-.354-.332-.531-.674-.531-.316 0-.61.171-.882.512v-2.059h-.844v6.291zm.844-.911v-2.855c.139-.139.282-.209.427-.209.247 0 .37.212.37.635v2.002c0 .424-.123.635-.37.635-.145 0-.288-.069-.427-.208zm.646-8.87v-3.738h.863v3.482l.01.332c.019.139.086.209.199.209.171 0 .351-.136.541-.408v-3.615h.863v4.734h-.863v-.522c-.335.392-.661.588-.977.588-.291 0-.477-.117-.56-.351-.051-.152-.076-.389-.076-.711zm1.66 8.263c0 .5.092.866.275 1.1.247.323.588.484 1.025.484.455 0 .797-.168 1.025-.503.114-.171.18-.341.199-.512.013-.057.019-.24.019-.55v-.123h-.863c0 .323-.006.515-.019.579-.044.228-.171.342-.379.342-.291 0-.436-.218-.436-.655v-.826h1.698v-.977c0-.5-.085-.866-.256-1.1-.247-.323-.582-.484-1.006-.484-.43 0-.768.161-1.015.484-.177.234-.266.601-.266 1.1l-.001 1.641zm.844-1.376v-.436c0-.43.142-.645.427-.645s.427.215.427.645v.436h-.854z"/>
    </symbol>

    <symbol id="logo" viewBox="0 97.2 611.8 597">
        <path d="M285.5 582.8c-1.3 0-12.7.2-19.8 8.2-4.6 5.1-6.5 12.2-5.5 21.1 2.1 20 4.2 33.3 5.5 41.2.4 3 .8 5.1 1.1 6.5l.2 1.1c.6 5.3 1.5 13.5 16.7 13.5 6.1 0 10.6-1.5 13.3-4.4 3.8-4 4-9.9 3.8-15.2-.4-8.2-1.5-25.7.2-36.7.2-1.3.4-2.7.8-4.2 1.7-8.2 3.6-18.4-1.7-24.9-3-4.3-7.8-6.2-14.6-6.2zm8.5 84c-2.1 2.1-5.5 3.2-10.3 3.2-11.6 0-12-4.4-12.7-9.7l-.2-1.3c-.2-1.5-.6-3.6-1.1-6.5-.8-5.3-2.1-12.9-3.6-23.2.2.2.6.4.8.4h.4c.8 0 1.9-.6 2.1-1.7 3.8-15 10.3-25.5 13.9-30.2 2.1 5.3 6.3 15.6 11 21.9.4.6 1.1.8 1.9.8-1.3 11.4-.2 26.4.2 34 .3 4.4.3 9.3-2.4 12.3zm3.8-54.3l-.6 3.6c-5.5-8.4-10.8-22.8-10.8-23-.2-.6-.8-1.3-1.5-1.3-.6-.2-1.5 0-1.9.6-.4.4-11.2 12.5-16.9 33.8-.6-4.4-1.1-9.3-1.7-14.6-.8-7.6.8-13.5 4.4-17.7 6.1-6.8 16.2-6.8 16.7-6.8 5.5 0 9.1 1.5 11.4 4.2 4 4.8 2.1 13.8.9 21.2zM327.1 603c-6.8.2-11.6 2.1-14.6 5.7-5.3 6.5-3.4 16.7-1.7 24.9.2 1.5.6 3 .8 4.2 1.7 11.2.8 28.5.2 36.7-.2 5.3 0 11.2 3.8 15.2 3 3 7.2 4.4 13.3 4.4 15.4 0 16.2-8 16.7-13.5l.2-1.1c.2-1.5.4-3.6 1.1-6.5 1.3-8 3.6-21.3 5.5-41.2.8-8.9-1.1-15.8-5.5-21.1-7.1-7.5-18.3-7.7-19.8-7.7zm15.8 69.9c-.4 3-.8 5.1-1.1 6.5l-.2 1.3c-.6 5.3-1.1 9.7-12.7 9.7-4.9 0-8.2-1.1-10.3-3.2-2.7-3-3-7.8-2.5-12.2.4-7.6 1.3-22.6.2-34 .6 0 1.5-.2 1.9-.8 4.4-6.3 8.9-16.5 11-21.9 3.4 4.6 10.1 15 13.9 30.2.2 1.1 1.1 1.7 2.1 1.7h.4c.4 0 .6-.2.8-.4-1.4 10.2-2.6 17.8-3.5 23.1zm5.5-41c-.6 5.3-1.1 10.1-1.7 14.6-5.5-21.3-16.2-33.3-16.9-33.8-.4-.6-1.3-.8-1.9-.6-.6.2-1.3.6-1.5 1.3 0 .2-5.3 14.6-10.8 23-.2-1.1-.4-2.3-.6-3.6-1.5-7.4-3.2-16.5.8-21.5 2.1-2.7 5.9-4 11.4-4.2.4 0 10.6 0 16.7 6.8 3.9 4.3 5.4 10.2 4.5 18zM327.7 315.4v-15.8c0-.6-.2-1.3-.8-1.7-.4-.4-1.1-.6-1.7-.4l-47.5 8.4c-1.1.2-1.7 1.1-1.7 2.1v15.8c0 .6.2 1.3.8 1.7.4.4.8.4 1.3.4h.4l47.5-8.4c1.1-.2 1.7-1.1 1.7-2.1zm-4.2-1.7l-43.3 7.6v-11.6l43.3-7.6v11.6zM278.1 301.2h.4l47.5-8.4c1.1-.2 1.7-1.1 1.7-2.1v-15.8c0-.6-.2-1.3-.8-1.7-.4-.4-1.1-.6-1.7-.4l-47.5 8.4c-1.1.2-1.7 1.1-1.7 2.1v15.8c0 .6.2 1.3.8 1.7.3.2.9.4 1.3.4zm2.2-16l43.3-7.6v11.6l-43.3 7.6v-11.6zM278.1 276.6h.4l47.5-8.4c1.1-.2 1.7-1.1 1.7-2.1v-15.8c0-.6-.2-1.3-.8-1.7-.4-.4-1.1-.6-1.7-.4l-47.5 8.4c-1.1.2-1.7 1.1-1.7 2.1v15.8c0 .6.2 1.3.8 1.7.3.4.9.4 1.3.4zm2.2-16.1l43.3-7.6v11.6l-43.3 7.6v-11.6zM606.5 357.8c-5.9-5.3-14.4-4.2-14.8-4.2-1.1.2-1.9 1.3-1.9 2.3.2 1.1 1.3 1.9 2.3 1.9 0 0 7-.8 11.4 3.2 2.7 2.3 4 5.9 4 10.8 0 4.6-1.3 8.2-3.8 10.6-3.8 3.6-9.3 3.4-9.3 3.4h-257.6c-1.1 0-2.1.8-2.1 2.1s.8 2.1 2.1 2.1h258.09999999999997c1.7 0 7.4-.2 11.8-4.4 3.4-3.2 5.1-7.8 5.1-13.7.2-6.1-1.7-10.9-5.3-14.1zM532.7 414.1h-458.4c-.2 0-7.2-.2-12.2 4.4-3.4 3.2-5.1 7.8-5.1 13.7 0 6.1 1.9 10.8 5.5 13.9 5.9 5.3 14.4 4.2 14.8 4.2 1.1-.2 1.9-1.3 1.9-2.3-.2-1.1-1.3-1.9-2.3-1.9 0 0-7 .8-11.4-3.2-2.7-2.3-4-5.9-4-10.8 0-4.6 1.3-8.2 3.8-10.6 3.8-3.6 9.3-3.4 9.3-3.4h458.6s5.5-.2 9.3 3.4c2.5 2.3 3.8 5.9 3.8 10.6 0 4.9-1.3 8.4-4 10.8-4.4 4-11.4 3.2-11.4 3.2-1.3-.2-2.1.6-2.3 1.9-.2 1.1.6 2.1 1.9 2.3 0 0 .8.2 2.1.2 3 0 8.4-.6 12.7-4.2 3.6-3.2 5.5-7.8 5.5-13.9 0-5.9-1.7-10.6-5.1-13.7-5.9-5-12.8-4.6-13-4.6zM509.4 551.3h-410c-.2 0-7.2-.2-12.2 4.4-3.4 3.2-5.1 7.8-5.1 13.7 0 6.1 1.9 10.8 5.5 13.9 5.9 5.3 14.4 4.2 14.8 4.2 1.1-.2 1.9-1.3 1.9-2.3-.2-1.1-1.3-1.9-2.3-1.9 0 0-7 .8-11.4-3.2-2.7-2.3-4-5.9-4-10.8 0-4.6 1.3-8.2 3.8-10.6 3.8-3.6 9.3-3.4 9.3-3.4h410.3s5.5-.2 9.3 3.4c2.5 2.3 3.8 5.9 3.8 10.6 0 4.9-1.3 8.4-4 10.8-4.4 4-11.4 3.2-11.4 3.2-1.3-.2-2.1.6-2.3 1.9-.2 1.1.6 2.1 1.9 2.3 0 0 .8.2 2.1.2 3 0 8.4-.6 12.7-4.2 3.6-3.2 5.5-7.8 5.5-13.9 0-5.9-1.7-10.6-5.1-13.7-5.9-4.8-12.9-4.6-13.1-4.6zM231.9 583.6h-80.8c-1.1 0-2.1.8-2.1 2.1s.8 2.1 2.1 2.1h80.8s5.5-.2 9.3 3.4c2.5 2.3 3.8 5.9 3.8 10.6 0 4.9-1.3 8.4-4 10.8-4.4 4-11.4 3.2-11.4 3.2-1.1-.2-2.1.6-2.3 1.9-.2 1.1.6 2.1 1.9 2.3 0 0 .8.2 2.1.2 3 0 8.4-.6 12.7-4.2 3.6-3.2 5.5-7.8 5.5-13.9 0-5.9-1.7-10.6-5.1-13.7-5.3-5.2-12.3-4.8-12.5-4.8zM457.1 583.6h-80.6c-.2 0-7.2-.2-12.2 4.4-3.4 3.2-5.1 7.8-5.1 13.7 0 6.1 1.9 10.8 5.5 13.9 4.2 3.8 9.7 4.2 12.7 4.2 1.3 0 1.9 0 2.1-.2 1.1-.2 1.9-1.3 1.9-2.3-.2-1.1-1.3-1.9-2.3-1.9 0 0-7 .8-11.4-3.2-2.7-2.3-4-5.9-4-10.8 0-4.6 1.3-8.2 3.8-10.6 3.8-3.6 9.3-3.4 9.3-3.4h80.8c1.1 0 2.1-.8 2.1-2.1-.1-1.1-1.5-1.7-2.6-1.7zM277.3 387.8c0-1.1-.8-2.1-2.1-2.1h-257.9s-5.5.2-9.3-3.4c-2.5-2.3-3.8-5.9-3.8-10.6 0-4.9 1.3-8.4 4-10.8 4.4-4 11.4-3.2 11.4-3.2 1.1.2 2.1-.6 2.3-1.9.2-1.1-.6-2.1-1.9-2.3-.4 0-8.9-1.1-14.8 4.2-3.4 3.2-5.3 8-5.3 13.9s1.7 10.6 5.1 13.7c4.4 4.2 10.3 4.4 11.8 4.4h258.29999999999995c1.1.2 2.2-.7 2.2-1.9zM213.6 132.2c1.9 3.4 4 7.4 6.3 12.2 1.1 2.1 2.1 4.2 3.2 6.1 4.9 9.7 9.3 17.9 9.3 24.9 0 3.6-1.1 6.5-3.2 8.4-1.9 1.7-4.6 2.7-7.8 2.7-6.1 0-11.2-5.1-11.2-11.2 0-1.1-.8-2.1-2.1-2.1s-2.1.8-2.1 2.1c0 8.4 6.8 15.2 15.2 15.2 4.2 0 8-1.3 10.8-3.8 3-2.7 4.6-6.8 4.6-11.4 0-8-4.4-16.7-9.7-26.8-1.1-1.9-2.1-4-3.2-6.1-2.5-4.9-4.6-8.9-6.3-12.2-4-7.6-6.5-12-7.2-17.7-.4-3 .2-5.5 1.9-7.2 1.9-2.3 5.3-3.6 9.1-3.6 6.1 0 11.2 5.1 11.2 11.2 0 1.1.8 2.1 2.1 2.1 1.1 0 2.1-.8 2.1-2.1 0-8.4-6.8-15.2-15.2-15.2-5.1 0-9.5 1.9-12.2 5.1-2.5 2.7-3.6 6.3-3 10.6.4 5.9 2.9 10.8 7.4 18.8zM264 191.3c5.3 0 9.1-1.3 11.6-4 2.5-2.5 3.8-6.5 3.6-11.4 0-1.1-1.1-2.1-2.1-2.1s-2.1 1.1-2.1 2.1c0 3.8-.6 6.8-2.3 8.4-1.7 1.9-4.6 2.7-8.7 2.7-6.1 0-11.2-5.1-11.2-11.2v-63.3c0-6.1 5.1-11.2 11.2-11.2s11.2 5.1 11.2 11.2c0 1.1.8 2.1 2.1 2.1 1.1 0 2.1-.8 2.1-2.1 0-8.4-6.8-15.4-15.2-15.4-8.4 0-15.2 7-15.2 15.4v63.3c-.2 8.5 6.6 15.5 15 15.5zM293.8 190.2c1.1 0 2.1-.8 2.1-2.1v-51.9h22.1v51.7c0 1.1.8 2.1 2.1 2.1s2.1-.8 2.1-2.1v-75.3c0-8.4-6.8-15.2-15.2-15.2s-15.2 6.8-15.2 15.2v75.6c-.2 1.2.7 2 2 2zm13-88.6c6.1 0 11.2 5.1 11.2 11.2v19.4h-22.2v-19.6c.1-6.1 4.9-11 11-11zM375.6 190.2c1.1 0 2.1-.8 2.1-2.1v-51.9h22.2v51.7c0 1.1.8 2.1 2.1 2.1 1.1 0 2.1-.8 2.1-2.1v-75.3c0-8.4-6.8-15.2-15.2-15.2-8.4 0-15.2 6.8-15.2 15.2v75.6c-.2 1.2.7 2 1.9 2zm13.1-88.6c6.1 0 11.2 5.1 11.2 11.2v19.4h-22.2v-19.6c.1-6.1 4.9-11 11-11zM340.4 190h20.3c1.1 0 2.1-.8 2.1-2.1 0-1.1-.8-2.1-2.1-2.1h-18.1v-86.3c0-1.1-.8-2.1-2.1-2.1s-2.1.8-2.1 2.1v88.4c-.1 1.3.7 2.1 2 2.1zM463 445.8c1.1 0 2.1-.8 2.1-2.1s-.8-2.1-2.1-2.1h-17.5c-1.1 0-2.1.8-2.1 2.1v84.8c0 1.1.8 2.1 2.1 2.1h17.7c1.1 0 2.1-.8 2.1-2.1s-.8-2.1-2.1-2.1h-15.6v-38.2h14.6c1.1 0 2.1-.8 2.1-2.1s-.8-2.1-2.1-2.1h-14.6v-38.2h15.4zM125.1 530.2c4.6-2.1 12.5-7.8 12.5-22.4v-45.2c0-14.6-7.8-20.3-12.5-22.4-2.3-1.1-4.9-1.7-7.2-1.7-6.5 0-11 4-11 10.1v72.6c0 6.1 4.2 10.1 11 10.1 2.4.6 4.9 0 7.2-1.1zm-13.9-8.4v-72.6c0-5.3 4.6-5.9 6.8-5.9 1.9 0 3.8.4 5.5 1.3 4.4 2.1 9.9 7 9.9 18.6v45.2c0 11.6-5.5 16.5-9.9 18.6-1.7.8-3.8 1.3-5.5 1.3-2.1-.6-6.8-1.2-6.8-6.5zM422.5 530.2c4.6-2.1 12.5-7.8 12.5-22.4v-45.2c0-14.6-7.8-20.3-12.5-22.4-2.3-1.1-4.9-1.7-7.2-1.7-6.5 0-11 4-11 10.1v72.6c0 6.1 4.2 10.1 11 10.1 2.3.6 4.9 0 7.2-1.1zm-13.9-8.4v-72.6c0-5.3 4.6-5.9 6.8-5.9 1.9 0 3.8.4 5.5 1.3 4.4 2.1 9.9 7 9.9 18.6v45.2c0 11.6-5.5 16.5-9.9 18.6-1.7.8-3.8 1.3-5.5 1.3-2.2-.6-6.8-1.2-6.8-6.5zM507.3 462.9c0-14.6-7.8-20.3-12.5-22.4-4.9-2.1-10.3-2.1-13.9.2-2.7 1.7-4.2 4.6-4.2 8.4v78.5c0 1.1.8 2.1 2.1 2.1s2.1-.8 2.1-2.1v-40.6h.2c4.9 0 8.9-.6 12.5-2.3l12.2 43.5c.2.8 1.1 1.5 2.1 1.5h.6c1.1-.2 1.7-1.5 1.5-2.5l-12.2-43.9c0-.2-.2-.4-.2-.4.8-.6 1.7-1.3 2.5-2.1 7-7.4 7.2-17.5 7.2-17.9zm-26.1 19.8l-.2-33.6c0-2.3.8-3.8 2.3-4.9 2.3-1.5 6.3-1.5 9.9.2 4.4 2.1 9.9 7 9.9 18.4 0 0-.2 8.9-6.3 14.8-3.6 3.4-8.9 5.3-15.6 5.1zM235.3 227.4v102.1c0 .8.4 1.5 1.1 1.9l68.2 37.1c.2.2.6.2 1.1.2s.8-.2 1.3-.4l60.1-40.5c.6-.4.8-1.1.8-1.7v-30.6c21.3-16 42.2-20.5 47.7-21.3 2.1 5.9 7.6 10.3 14.1 11-1.3.8-2.3 1.9-3.6 3l-.2.2c-.4.6-11.8 15 6.3 39.3.6.8 2.1 1.1 3 .4.8-.6 1.1-2.1.4-3-15.6-20.7-7.4-32.7-6.5-34 9.1-8.4 20.9-12.9 33.6-12.5 12.5.4 24.1 5.7 32.7 14.8 6.8 7.2 10.3 16.7 9.9 26.6s-4.4 19-11.8 25.7c-5.7 5.3-13.1 8-20.7 7.8h-.4c-7.8-.2-15-3.6-20.3-9.3-8.7-9.3-8.2-23.8 1.1-32.5 7.2-6.8 18.6-6.3 25.3.8 2.5 2.7 3.8 6.3 3.8 9.9-.2 3.8-1.7 7.2-4.4 9.7-4.4 4-11.2 3.8-15.2-.4-1.5-1.7-2.3-3.6-2.1-5.9 0-2.1 1.1-4.2 2.5-5.7 2.5-2.3 6.3-2.1 8.7.2.8.8 2.1.8 3 0s.8-2.1 0-3c-3.8-4.2-10.3-4.4-14.6-.4-2.3 2.3-3.8 5.3-4 8.7-.2 3.4 1.1 6.5 3.4 8.9 5.7 5.9 15.2 6.3 21.1.6 3.6-3.4 5.5-7.8 5.7-12.7.2-4.9-1.5-9.5-4.9-13.1-8.4-8.9-22.4-9.5-31.2-1.1-5.3 4.9-8.4 11.6-8.7 19-.2 7.2 2.3 14.1 7.4 19.4 1.5 1.5 3 3 4.6 4.2l-.2.2-5.9 16.5c-.4 1.1.2 2.3 1.3 2.7l.6.2c.8 0 1.7-.6 1.9-1.5l5.7-16c4 2.1 8.2 3.6 12.9 4l-1.3 12c-.2 1.1.6 2.1 1.9 2.3h.2c1.1 0 1.9-.8 2.1-1.9l1.5-12.5c8.2-.2 16-3.4 21.9-9.1 8-7.6 12.7-17.7 13.1-28.7s-3.6-21.5-11.2-29.5c-9.3-9.9-21.9-15.6-35.7-16.2-5.9-.2-11.6.6-16.9 2.3 1.3-2.3 2.1-5.3 2.1-8 0-9.3-7.4-16.7-16.7-16.7-9.3 0-16.7 7.4-16.7 16.7v1.5c-5.9 1.1-25.7 5.3-46.8 20.3v-62.3c0-1.1-.8-2.1-2.1-2.1h-128.3c-.6.3-1.7 1.3-1.7 2.4zm196.1 28.7c7 0 12.5 5.7 12.5 12.5 0 7-5.7 12.5-12.5 12.5s-12.5-5.7-12.5-12.5c-.2-6.8 5.5-12.5 12.5-12.5zm-191.9-26.6h124.1v63.9c-4.9 3.8-9.9 8.2-14.6 13.5-.8.8-.6 2.1.2 3 .4.4.8.6 1.5.6s1.1-.2 1.5-.6c3.8-4 7.6-7.8 11.6-11v26.2l-58.2 39.3-66.1-36.1v-98.8zM93.5 363.3c-5.1.6-8.4.8-8.4.8-1.1 0-2.1 1.1-1.9 2.1 0 1.1 1.1 2.1 2.1 2.1 3.2 0 6.1-.2 8.9-.8 13.7-1.9 39.5-7.2 48.1-21.7 2.7 3.4 5.9 6.3 9.5 8.9.4.2.8.4 1.3.4.6 0 1.3-.4 1.7-.8.6-1.1.4-2.3-.6-3-18.6-12.7-23.4-38.4-10.8-57 12.7-18.6 38.4-23.4 57-10.8 1.1.6 2.3.4 3-.6.6-1.1.4-2.3-.6-3-9.9-6.8-21.9-9.3-33.8-7.2-2.1.4-4 .8-5.9 1.5l.2-.6 1.3-42.4 31.9 25.7-23.2.8c-1.1 0-2.1 1.1-2.1 2.1s1.1 2.1 2.1 2.1l28.9-1.1c.8 0 1.7-.6 1.9-1.5.2-.8 0-1.7-.6-2.3l-39.9-31.7c-.6-.4-1.5-.6-2.1-.2-.6.4-1.3 1.1-1.3 1.9l-1.3 46.6c0 .8.4 1.5 1.1 1.9-8 3.4-15 8.9-20 16.2-4.9 7-7.2 15-7.8 22.8-.2.2-.4.6-.6 1.1-.3.6-8.4 41.1-38.1 47.7zm46-20.7c-.4.2-.8.4-1.1.8-4.9 8.4-16.7 13.5-28.1 16.5 12.2-9.3 19-24.1 22.4-33.8 1.1 6 3.4 11.4 6.8 16.5zM180.2 516.9v-62.7c0-8.4-7-15.4-15.4-15.4s-15.4 7-15.4 15.4v62.7c0 8.4 7 15.4 15.4 15.4 8.7 0 15.4-6.9 15.4-15.4zm-26.4 0v-62.7c0-6.1 5.1-11.2 11.2-11.2s11.2 5.1 11.2 11.2v62.7c0 6.1-5.1 11.2-11.2 11.2s-11.2-5.1-11.2-11.2zM192 439.5c-1.1 0-2.1.8-2.1 2.1v75.3c0 8.4 7 15.4 15.4 15.4 5.7 0 10.6-3.2 13.3-7.6 2.7 4.6 7.6 7.6 13.3 7.6 8.4 0 15.4-7 15.4-15.4v-73.9c0-1.1-.8-2.1-2.1-2.1s-2.1.8-2.1 2.1v73.9c0 6.1-5.1 11.2-11.2 11.2s-11.2-5.1-11.2-11.2v-74.10000000000001c0-1.1-.8-2.1-2.1-2.1s-2.1.8-2.1 2.1v73.9c0 6.1-5.1 11.2-11.2 11.2s-11.2-5.1-11.2-11.2v-75.3c.1-.9-.8-1.9-2.1-1.9zM285.1 532.3c1.1 0 2.1-.8 2.1-2.1v-75.3c0-8.4-7-15.4-15.4-15.4s-15.4 7-15.4 15.4v73.9c0 1.1.8 2.1 2.1 2.1s2.1-.8 2.1-2.1v-73.9c0-6.1 5.1-11.2 11.2-11.2s11.2 5.1 11.2 11.2v75.3c0 1.1 1.1 2.1 2.1 2.1zM393.4 532.3c1.1 0 2.1-.8 2.1-2.1v-75.3c0-8.4-7-15.4-15.4-15.4s-15.4 7-15.4 15.4v73.9c0 1.1.8 2.1 2.1 2.1s2.1-.8 2.1-2.1v-73.9c0-6.1 5.1-11.2 11.2-11.2s11.2 5.1 11.2 11.2v75.3c0 1.1.8 2.1 2.1 2.1zM325.2 439.5c-1.1 0-2.1.8-2.1 2.1v75.3c0 8.4 7 15.4 15.4 15.4s15.4-7 15.4-15.4v-73.9c0-1.1-.8-2.1-2.1-2.1-1.1 0-2.1.8-2.1 2.1v73.9c0 6.1-5.1 11.2-11.2 11.2s-11.2-5.1-11.2-11.2v-75.3c0-1.1-.8-2.1-2.1-2.1zM169.9 360.8l25.5-42c.4-.6.4-1.5 0-2.1-.4-.6-1.1-1.1-1.7-1.1l-33.6-1.1c-1.3 0-2.1.8-2.1 2.1 0 1.1.8 2.1 2.1 2.1l30 .8-25.7 42c-.4.6-.4 1.5 0 2.1.4.6 1.1 1.1 1.9 1.1l36.9.6c1.1 0 2.1-.8 2.1-2.1 0-1.1-.8-2.1-2.1-2.1l-33.3-.3zM54.7 317.7c.8 5.9 3.4 7.2 5.3 7.2 2.7 0 4.9-3 5.1-6.8.2-4.9 8.7-44.1 11.6-49.8 2.1-4 20.5-17.9 30.4-25.5 4.4-3.4 8-5.9 9.5-7.4 4-3.4 3.4-6.3 3-7.6-.8-2.1-3-3.6-5.5-3.6-1.3 0-2.7.4-3.8 1.1l-1.3.8c-19.6 10.3-44.1 24.5-49 32.7-6.1 10.1-5.3 53.6-5.3 58.7v.2zm6.1.2c0 1.3-.4 2.1-.8 2.5-.2-.4-.8-1.3-1.1-3.4 0-3.8-.2-9.7 0-16l4.9.6c-1.8 7.9-2.8 14.6-3 16.3zm50-88l1.1-.6c1.5-.8 3.2-.6 3.6.2.2.4-.2 1.7-1.7 3s-5.1 4-9.3 7.2c-.6.6-1.5 1.1-2.1 1.5l-3-5.3c3.6-2 7.4-3.9 11.4-6zm-47.3 31c2.7-4.4 14.1-12.7 32.3-22.8l3.2 5.7c-13.5 10.3-24.1 18.8-26.2 22.6-1.9 3.6-5.5 18.1-8.2 31l-5.5-.6c.2-14.5 1.5-31 4.4-35.9zM512.6 240.9c4.2 2.5 8 5.5 11.4 8.7l-4.6 3c-1.1.6-1.3 1.9-.6 3 .4.6 1.1 1.1 1.7 1.1.4 0 .8 0 1.1-.4l5.5-3.4c3 3.2 5.5 6.5 7.8 9.9l-9.9 3.8c-1.1.4-1.7 1.7-1.3 2.7.4.8 1.1 1.3 1.9 1.3.2 0 .4 0 .8-.2l10.3-4s.2 0 .2-.2c3.2 5.3 5.5 10.8 7.4 16l-15.2 3c-1.1.2-1.9 1.3-1.7 2.5.2 1.1 1.1 1.7 2.1 1.7h.4l15.6-3.2c1.5 4.9 2.5 9.3 3.4 13.5l-18.8 2.3c-1.1.2-1.9 1.3-1.9 2.3.2 1.1 1.1 1.9 2.1 1.9h.2l19-2.5c1.5 8.9 1.5 15 1.5 15.2 0 1.1.8 2.1 2.1 2.1 1.1 0 2.1-.8 2.1-2.1 0-.2 0-6.8-1.5-16l19.8-7.6c1.1-.4 1.7-1.7 1.3-2.7s-1.7-1.7-2.7-1.3l-19.2 7.4c-.8-4.2-1.9-9.1-3.6-13.9l13.7-8.7c1.1-.6 1.3-1.9.6-3s-1.9-1.3-3-.6l-12.9 8c-1.9-5.3-4.4-10.8-7.6-16.2l8.2-5.3c1.1-.6 1.3-1.9.6-3-.6-1.1-1.9-1.3-3-.6l-8.2 5.3c-2.3-3.6-5.1-7-8-10.3l5.5-4.4c.8-.6 1.1-2.1.2-3-.8-.8-2.1-1.1-3-.2l-5.7 4.9c-3.8-3.8-8.2-7.2-13.1-10.1-1.1-.6-2.3-.2-3 .8.7.6 1.2 1.9 2 2.5z"/>
    </symbol>
</svg>