<?xml version="1.0" encoding="utf-8"?>
<!-- Generator: Adobe Illustrator 17.1.0, SVG Export Plug-In . SVG Version: 6.00 Build 0)  -->
<!DOCTYPE svg PUBLIC "-//W3C//DTD SVG 1.1//EN" "http://www.w3.org/Graphics/SVG/1.1/DTD/svg11.dtd">
<svg version="1.1" id="Layer_1" xmlns="http://www.w3.org/2000/svg" xmlns:xlink="http://www.w3.org/1999/xlink" x="0px" y="0px"
	 viewBox="0 0 30.72 30.72" enable-background="new 0 0 30.72 30.72" xml:space="preserve">
<g>
	<path d="M10.384,11.43c0.193,1.464,1.252,2.677,2.366,2.71c1.114,0.034,1.862-1.126,1.669-2.589s-1.252-2.638-2.366-2.671
		C10.939,8.846,10.192,9.966,10.384,11.43z"/>
	<path d="M12.602,16.98c-1.66-0.018-3.148,1.012-3.148,2.249c0,1.262,1.199,2.313,2.859,2.313c2.334,0,3.148-0.986,3.148-2.249
		c0-0.152-0.019-0.301-0.053-0.446v0c-0.182-0.714-0.829-1.068-1.73-1.695C13.351,17.047,12.99,16.985,12.602,16.98z"/>
	<path d="M15.303,0C6.82,0-0.057,6.877-0.057,15.36c0,8.483,6.877,15.36,15.36,15.36c8.483,0,15.36-6.877,15.36-15.36
		C30.663,6.877,23.786,0,15.303,0z M16.919,8.267L16.919,8.267l-0.968,0.699H14.58c0.91,0.35,1.394,1.411,1.394,2.499
		c0,0.914-0.506,1.7-1.222,2.259c-0.698,0.545-0.83,0.774-0.83,1.237c0,0.395,0.748,1.068,1.139,1.345
		c1.143,0.808,1.513,1.559,1.513,2.811c0,1.562-1.512,3.116-4.251,3.116c-2.402,0-4.429-0.977-4.429-2.54
		c0-1.586,1.849-3.116,4.251-3.116c0.262,0,0.502-0.007,0.75-0.007c-0.329-0.32-0.589-0.711-0.589-1.195
		c0-0.287,0.091-0.563,0.22-0.808c-0.13,0.01-0.263,0.012-0.401,0.012c-1.973,0-3.295-1.404-3.295-3.143
		c0-1.702,1.825-3.171,3.764-3.171C13.674,8.267,16.91,8.267,16.919,8.267L16.919,8.267L16.919,8.267z M24.425,12.4h-3.1v3.1h-1.033
		v-3.1h-3.1v-1.033h3.1v-3.1h1.033v3.1h3.1V12.4z"/>
</g>
</svg>
