<?xml version="1.0" encoding="utf-8"?>
<!-- Generator: Adobe Illustrator 18.0.0, SVG Export Plug-In . SVG Version: 6.00 Build 0)  -->
<!DOCTYPE svg PUBLIC "-//W3C//DTD SVG 1.1//EN" "http://www.w3.org/Graphics/SVG/1.1/DTD/svg11.dtd">
<svg version="1.1" id="Layer_1" xmlns="http://www.w3.org/2000/svg" xmlns:xlink="http://www.w3.org/1999/xlink" x="0px" y="0px"
	 viewBox="0 0 612 792" style="enable-background:new 0 0 612 792;" xml:space="preserve">
<style type="text/css">
	.st0{fill:#EF5938;}
</style>
<g>
	<path class="st0" d="M293,412.7c-0.4-0.3-0.9-0.2-1.3,0.1c-0.3,0.4-0.2,0.9,0.1,1.3c0.4,0.3,0.8,0.6,1.2,0.9
		c0.2,0.1,0.3,0.2,0.5,0.2c0.3,0,0.6-0.1,0.7-0.4c0.3-0.4,0.2-1-0.2-1.2C293.7,413.3,293.3,413,293,412.7z"/>
	<path class="st0" d="M306.2,373.1c-12.7,0-23,10.3-23,23c0,5.6,2,11,5.7,15.2c0.3,0.4,0.9,0.4,1.3,0.1c0.4-0.3,0.4-0.9,0.1-1.3
		c-3.4-3.9-5.3-8.8-5.3-14c0-11.7,9.5-21.2,21.2-21.2c11.7,0,21.2,9.5,21.2,21.2c0,11.7-9.5,21.2-21.2,21.2c-2.9,0-5.8-0.6-8.5-1.8
		c-0.5-0.2-1,0-1.2,0.5c-0.2,0.5,0,1,0.5,1.2c2.9,1.3,6,1.9,9.2,1.9c12.7,0,23-10.3,23-23C329.2,383.4,318.8,373.1,306.2,373.1z"/>
	<path class="st0" d="M305.5,396.7l8.3,9c0.2,0.2,0.4,0.3,0.7,0.3c0.2,0,0.4-0.1,0.6-0.2c0.4-0.3,0.4-0.9,0-1.3l-8.1-8.7l0-15.5
		c0-0.5-0.4-0.9-0.9-0.9c0,0,0,0,0,0c-0.5,0-0.9,0.4-0.9,0.9l0,15.9h0C305.3,396.4,305.4,396.6,305.5,396.7z"/>
</g>
</svg>
