<?xml version="1.0" encoding="utf-8"?>
<!-- Generator: Adobe Illustrator 17.1.0, SVG Export Plug-In . SVG Version: 6.00 Build 0)  -->
<!DOCTYPE svg PUBLIC "-//W3C//DTD SVG 1.1//EN" "http://www.w3.org/Graphics/SVG/1.1/DTD/svg11.dtd">
<svg version="1.1" id="Layer_1" xmlns="http://www.w3.org/2000/svg" xmlns:xlink="http://www.w3.org/1999/xlink" x="0px" y="0px"
	 viewBox="0 0 30.72 30.72" enable-background="new 0 0 30.72 30.72" xml:space="preserve">
<path d="M15.36,0C6.877,0,0,6.877,0,15.36s6.877,15.36,15.36,15.36s15.36-6.877,15.36-15.36S23.843,0,15.36,0z M11.6,21.726H8.49
	V11.718h3.11V21.726z M10.026,10.49c-0.982,0-1.618-0.698-1.618-1.557c0-0.88,0.654-1.555,1.658-1.555s1.618,0.675,1.637,1.555
	C11.705,9.794,11.069,10.49,10.026,10.49z M22.958,21.726h-3.109v-5.547c0-1.29-0.451-2.168-1.576-2.168
	c-0.859,0-1.37,0.594-1.597,1.166c-0.082,0.203-0.102,0.491-0.102,0.776v5.771h-3.112v-6.816c0-1.248-0.04-2.293-0.082-3.192h2.701
	l0.144,1.39h0.061c0.41-0.654,1.413-1.616,3.091-1.616c2.046,0,3.581,1.37,3.581,4.317V21.726L22.958,21.726z"/>
</svg>
