<?xml version="1.0" encoding="utf-8"?>
<!-- Generator: Adobe Illustrator 18.0.0, SVG Export Plug-In . SVG Version: 6.00 Build 0)  -->
<!DOCTYPE svg PUBLIC "-//W3C//DTD SVG 1.1//EN" "http://www.w3.org/Graphics/SVG/1.1/DTD/svg11.dtd">
<svg version="1.1" id="Layer_1" xmlns="http://www.w3.org/2000/svg" xmlns:xlink="http://www.w3.org/1999/xlink" x="0px" y="0px"
	 viewBox="0 0 46 46" enable-background="new 0 0 46 46" xml:space="preserve">
<path d="M9.8,39.6c-0.4-0.3-0.9-0.2-1.3,0.1c-0.3,0.4-0.2,0.9,0.1,1.3c0.4,0.3,0.8,0.6,1.2,0.9
	c0.2,0.1,0.3,0.2,0.5,0.2c0.3,0,0.6-0.1,0.7-0.4c0.3-0.4,0.2-1-0.2-1.2C10.5,40.2,10.1,39.9,9.8,39.6z"/>
<path  d="M23,0C10.3,0,0,10.3,0,23c0,5.6,2,11,5.7,15.2C6,38.6,6.6,38.6,7,38.3C7.4,38,7.4,37.4,7.1,37
	c-3.4-3.9-5.3-8.8-5.3-14C1.8,11.3,11.3,1.8,23,1.8S44.2,11.3,44.2,23S34.7,44.2,23,44.2c-2.9,0-5.8-0.6-8.5-1.8
	c-0.5-0.2-1,0-1.2,0.5c-0.2,0.5,0,1,0.5,1.2c2.9,1.3,6,1.9,9.2,1.9c12.7,0,23-10.3,23-23C46,10.3,35.6,0,23,0z"/>
<path d="M22.3,23.6l8.3,9c0.2,0.2,0.4,0.3,0.7,0.3c0.2,0,0.4-0.1,0.6-0.2c0.4-0.3,0.4-0.9,0-1.3l-8.1-8.7V7.2
	c0-0.5-0.4-0.9-0.9-0.9l0,0c-0.5,0-0.9,0.4-0.9,0.9v15.9l0,0C22.1,23.3,22.2,23.5,22.3,23.6z"/>
</svg>
