<?xml version="1.0" encoding="utf-8"?>
<!-- Generator: Adobe Illustrator 18.0.0, SVG Export Plug-In . SVG Version: 6.00 Build 0)  -->
<!DOCTYPE svg PUBLIC "-//W3C//DTD SVG 1.1//EN" "http://www.w3.org/Graphics/SVG/1.1/DTD/svg11.dtd">
<svg version="1.1" id="Layer_1" xmlns="http://www.w3.org/2000/svg" xmlns:xlink="http://www.w3.org/1999/xlink" x="0px" y="0px"
	 viewBox="0 0 25.2 48" style="enable-background:new 0 0 25.2 48;" xml:space="preserve">
<path d="M12.6,39.1c-5.5,0-9.9-4.7-9.9-10.5V10.5C2.7,4.7,7.2,0,12.6,0s9.9,4.7,9.9,10.5v18.1
	C22.5,34.4,18.1,39.1,12.6,39.1z M12.6,1.3C7.9,1.3,4,5.4,4,10.4v18.1c0,5,3.9,9.1,8.6,9.1s8.6-4.1,8.6-9.1V10.4
	C21.2,5.4,17.3,1.3,12.6,1.3z"/>
<path d="M11.9,48H5.1c-0.4,0-0.7-0.3-0.7-0.7c0-0.4,0.3-0.7,0.7-0.7h6.1V42C4.9,41.2,0,35.9,0,29.5v-7.4
	c0-0.4,0.3-0.7,0.7-0.7c0.4,0,0.7,0.3,0.7,0.7v7.4c0,5.8,4.6,10.8,10.5,11.2c0.4,0,0.6,0.3,0.6,0.7v5.8C12.5,47.7,12.2,48,11.9,48z
	"/>
<path d="M20,48h-6.4c-0.4,0-0.7-0.3-0.7-0.7v-5.8c0-0.4,0.3-0.6,0.6-0.7c5.8-0.4,10.3-5.3,10.3-11.2v-7.4
	c0-0.4,0.3-0.7,0.7-0.7c0.4,0,0.7,0.3,0.7,0.7v7.4c0,6.3-4.7,11.7-10.9,12.5v4.6H20c0.4,0,0.7,0.3,0.7,0.7S20.4,48,20,48z"/>
</svg>
