<?xml version="1.0" encoding="utf-8"?>
<!-- Generator: Adobe Illustrator 17.1.0, SVG Export Plug-In . SVG Version: 6.00 Build 0)  -->
<!DOCTYPE svg PUBLIC "-//W3C//DTD SVG 1.1//EN" "http://www.w3.org/Graphics/SVG/1.1/DTD/svg11.dtd">
<svg version="1.1" id="Layer_1" xmlns="http://www.w3.org/2000/svg" xmlns:xlink="http://www.w3.org/1999/xlink" x="0px" y="0px"
	 viewBox="0 0 30.72 30.72" enable-background="new 0 0 30.72 30.72" xml:space="preserve">
<path d="M15.36,0C6.877,0,0,6.877,0,15.36s6.877,15.36,15.36,15.36s15.36-6.877,15.36-15.36S23.843,0,15.36,0z M8.532,18.588
	c0-1.48,0.082-2.587,0.247-3.32c0.089-0.373,0.272-0.686,0.55-0.939c0.278-0.253,0.604-0.401,0.977-0.446
	c1.157-0.126,2.909-0.19,5.256-0.19s4.101,0.063,5.265,0.19c0.367,0.044,0.691,0.193,0.972,0.446
	c0.281,0.253,0.463,0.566,0.546,0.939c0.164,0.708,0.247,1.815,0.247,3.32c0,1.48-0.082,2.587-0.247,3.32
	c-0.089,0.373-0.272,0.686-0.55,0.939c-0.278,0.253-0.601,0.398-0.967,0.436c-1.164,0.133-2.919,0.199-5.265,0.199
	s-4.101-0.066-5.265-0.199c-0.367-0.038-0.691-0.183-0.972-0.436c-0.281-0.253-0.463-0.566-0.546-0.939
	C8.614,21.2,8.532,20.093,8.532,18.588z M9.585,16.225h0.996v5.398h0.949v-5.398h1.015v-0.892h-2.96L9.585,16.225L9.585,16.225z
	 M10.799,6.483h1.006l0.674,2.495l0.645-2.495h0.967l-1.148,3.785v2.571h-0.949v-2.571C11.905,9.8,11.713,9.13,11.415,8.257
	C11.181,7.605,10.976,7.014,10.799,6.483L10.799,6.483z M12.668,20.647c0,0.31,0.025,0.541,0.076,0.693
	c0.076,0.234,0.259,0.351,0.55,0.351c0.304,0,0.626-0.193,0.967-0.579v0.512h0.844v-4.686h-0.844v3.586
	c-0.19,0.266-0.37,0.398-0.541,0.398c-0.114,0-0.18-0.066-0.199-0.199c-0.006-0.019-0.01-0.13-0.01-0.332v-3.453h-0.844V20.647
	L12.668,20.647z M14.1,11.302v-1.66c0-0.506,0.089-0.876,0.266-1.11c0.24-0.323,0.573-0.484,0.996-0.484
	c0.436,0,0.772,0.161,1.006,0.484c0.177,0.234,0.266,0.604,0.266,1.11v1.66c0,0.512-0.089,0.885-0.266,1.119
	c-0.234,0.323-0.569,0.484-1.006,0.484c-0.424,0-0.756-0.161-0.996-0.484C14.189,12.181,14.1,11.808,14.1,11.302z M14.954,11.463
	c0,0.443,0.136,0.664,0.408,0.664c0.272,0,0.408-0.221,0.408-0.664V9.471c0-0.436-0.136-0.655-0.408-0.655
	c-0.272,0-0.408,0.218-0.408,0.655V11.463z M15.846,21.624h0.844v-0.455c0.285,0.348,0.579,0.522,0.882,0.522
	c0.341,0,0.566-0.174,0.674-0.522c0.057-0.171,0.086-0.487,0.086-0.949V18.35c0-0.462-0.029-0.775-0.086-0.939
	c-0.108-0.354-0.332-0.531-0.674-0.531c-0.316,0-0.61,0.171-0.882,0.512v-2.059h-0.844V21.624L15.846,21.624z M16.69,20.713v-2.855
	c0.139-0.139,0.282-0.209,0.427-0.209c0.247,0,0.37,0.212,0.37,0.635v2.002c0,0.424-0.123,0.635-0.37,0.635
	C16.972,20.921,16.829,20.852,16.69,20.713L16.69,20.713z M17.336,11.843V8.105h0.863v3.482c0,0.209,0.003,0.319,0.01,0.332
	c0.019,0.139,0.086,0.209,0.199,0.209c0.171,0,0.351-0.136,0.541-0.408V8.105h0.863v4.734h-0.863v-0.522
	c-0.335,0.392-0.661,0.588-0.977,0.588c-0.291,0-0.477-0.117-0.56-0.351C17.361,12.402,17.336,12.165,17.336,11.843z M18.996,20.106
	c0,0.5,0.092,0.866,0.275,1.1c0.247,0.323,0.588,0.484,1.025,0.484c0.455,0,0.797-0.168,1.025-0.503
	c0.114-0.171,0.18-0.341,0.199-0.512c0.013-0.057,0.019-0.24,0.019-0.55v-0.123h-0.863c0,0.323-0.006,0.515-0.019,0.579
	c-0.044,0.228-0.171,0.342-0.379,0.342c-0.291,0-0.436-0.218-0.436-0.655v-0.826h1.698v-0.977c0-0.5-0.085-0.866-0.256-1.1
	c-0.247-0.323-0.582-0.484-1.006-0.484c-0.43,0-0.768,0.161-1.015,0.484c-0.177,0.234-0.266,0.601-0.266,1.1L18.996,20.106
	L18.996,20.106z M19.84,18.73v-0.436c0-0.43,0.142-0.645,0.427-0.645s0.427,0.215,0.427,0.645v0.436H19.84L19.84,18.73z"/>
</svg>
