<?xml version="1.0" encoding="utf-8"?>
<!-- Generator: Adobe Illustrator 18.0.0, SVG Export Plug-In . SVG Version: 6.00 Build 0)  -->
<!DOCTYPE svg PUBLIC "-//W3C//DTD SVG 1.1//EN" "http://www.w3.org/Graphics/SVG/1.1/DTD/svg11.dtd">
<svg version="1.1" id="Layer_1" xmlns="http://www.w3.org/2000/svg" xmlns:xlink="http://www.w3.org/1999/xlink" x="0px" y="0px"
	 viewBox="289.8 371.4 32 48" enable-background="new 289.8 371.4 32 48" xml:space="preserve">
<path d="M321.8,387.4c0-8.8-7.2-16-16-16s-16,7.2-16,16c0,6.7,4.1,12.4,9.9,14.8l5.5,16.7c0.1,0.3,0.4,0.5,0.7,0.5
	l0,0c0.3,0,0.6-0.2,0.7-0.5l5.4-16.7C317.7,399.8,321.8,394.1,321.8,387.4z M305.9,416.5l-4.5-13.6c1.4,0.4,2.9,0.6,4.5,0.6
	s3-0.2,4.5-0.6L305.9,416.5z M305.8,402c-8.1,0-14.6-6.5-14.6-14.6s6.5-14.6,14.6-14.6s14.6,6.5,14.6,14.6S313.9,402,305.8,402z"/>
</svg>
