<?xml version="1.0" encoding="utf-8"?>
<!-- Generator: Adobe Illustrator 18.0.0, SVG Export Plug-In . SVG Version: 6.00 Build 0)  -->
<!DOCTYPE svg PUBLIC "-//W3C//DTD SVG 1.1//EN" "http://www.w3.org/Graphics/SVG/1.1/DTD/svg11.dtd">
<svg version="1.1" id="Layer_1" xmlns="http://www.w3.org/2000/svg" xmlns:xlink="http://www.w3.org/1999/xlink" x="0px" y="0px"
	 viewBox="288.9 373 35 46" enable-background="new 288.9 373 35 46" xml:space="preserve">
<path d="M306.4,397.9c-4.3,0-7.8-3.5-7.8-7.8s3.5-7.8,7.8-7.8s7.8,3.5,7.8,7.8C314.2,394.4,310.7,397.9,306.4,397.9
	z M306.4,384.1c-3.3,0-6,2.7-6,6s2.7,6,6,6s6-2.7,6-6C312.5,386.8,309.8,384.1,306.4,384.1z"/>
<path d="M306.5,419h-0.1c-1.5,0-2.7-1.2-2.9-1.4l0,0c-7-8.1-14.6-17.6-14.6-27.1c0-9.6,7.8-17.5,17.5-17.5
	c9.6,0,17.5,7.8,17.5,17.5c0,9.6-7.5,19-14.6,27.1l0,0C309.3,417.6,308.1,419,306.5,419z M304.9,416.4c0,0,0.8,0.8,1.5,0.8h0.1
	c0.7,0,1.3-0.6,1.5-0.8c6.8-7.9,14.1-17,14.1-26c0-8.7-7-15.7-15.7-15.7s-15.7,7-15.7,15.7C290.7,399.4,298,408.5,304.9,416.4
		L304.9,416.4z"/>
</svg>
