<?xml version="1.0" encoding="utf-8"?>
<!-- Generator: Adobe Illustrator 18.0.0, SVG Export Plug-In . SVG Version: 6.00 Build 0)  -->
<!DOCTYPE svg PUBLIC "-//W3C//DTD SVG 1.1//EN" "http://www.w3.org/Graphics/SVG/1.1/DTD/svg11.dtd">
<svg version="1.1" id="Layer_1" xmlns="http://www.w3.org/2000/svg" xmlns:xlink="http://www.w3.org/1999/xlink" x="0px" y="0px"
	 viewBox="0 97.2 611.8 597" enable-background="new 0 97.2 611.8 597" xml:space="preserve">
<path d="M285.5,582.8c-1.3,0-12.7,0.2-19.8,8.2c-4.6,5.1-6.5,12.2-5.5,21.1c2.1,20,4.2,33.3,5.5,41.2
		c0.4,3,0.8,5.1,1.1,6.5l0.2,1.1c0.6,5.3,1.5,13.5,16.7,13.5c6.1,0,10.6-1.5,13.3-4.4c3.8-4,4-9.9,3.8-15.2
		c-0.4-8.2-1.5-25.7,0.2-36.7c0.2-1.3,0.4-2.7,0.8-4.2c1.7-8.2,3.6-18.4-1.7-24.9C297.1,584.7,292.3,582.8,285.5,582.8z M294,666.8
		c-2.1,2.1-5.5,3.2-10.3,3.2c-11.6,0-12-4.4-12.7-9.7l-0.2-1.3c-0.2-1.5-0.6-3.6-1.1-6.5c-0.8-5.3-2.1-12.9-3.6-23.2
		c0.2,0.2,0.6,0.4,0.8,0.4s0.4,0,0.4,0c0.8,0,1.9-0.6,2.1-1.7c3.8-15,10.3-25.5,13.9-30.2c2.1,5.3,6.3,15.6,11,21.9
		c0.4,0.6,1.1,0.8,1.9,0.8c-1.3,11.4-0.2,26.4,0.2,34C296.7,658.9,296.7,663.8,294,666.8z M297.8,612.5c-0.2,1.3-0.4,2.3-0.6,3.6
		c-5.5-8.4-10.8-22.8-10.8-23c-0.2-0.6-0.8-1.3-1.5-1.3c-0.6-0.2-1.5,0-1.9,0.6c-0.4,0.4-11.2,12.5-16.9,33.8
		c-0.6-4.4-1.1-9.3-1.7-14.6c-0.8-7.6,0.8-13.5,4.4-17.7c6.1-6.8,16.2-6.8,16.7-6.8c5.5,0,9.1,1.5,11.4,4.2
		C300.9,596.1,299,605.1,297.8,612.5z"/>
<path d="M327.1,603L327.1,603c-6.8,0.2-11.6,2.1-14.6,5.7c-5.3,6.5-3.4,16.7-1.7,24.9c0.2,1.5,0.6,3,0.8,4.2
		c1.7,11.2,0.8,28.5,0.2,36.7c-0.2,5.3,0,11.2,3.8,15.2c3,3,7.2,4.4,13.3,4.4c15.4,0,16.2-8,16.7-13.5l0.2-1.1
		c0.2-1.5,0.4-3.6,1.1-6.5c1.3-8,3.6-21.3,5.5-41.2c0.8-8.9-1.1-15.8-5.5-21.1C339.8,603.2,328.6,603,327.1,603z M342.9,672.9
		c-0.4,3-0.8,5.1-1.1,6.5l-0.2,1.3c-0.6,5.3-1.1,9.7-12.7,9.7c-4.9,0-8.2-1.1-10.3-3.2c-2.7-3-3-7.8-2.5-12.2
		c0.4-7.6,1.3-22.6,0.2-34c0.6,0,1.5-0.2,1.9-0.8c4.4-6.3,8.9-16.5,11-21.9c3.4,4.6,10.1,15,13.9,30.2c0.2,1.1,1.1,1.7,2.1,1.7
		c0.2,0,0.4,0,0.4,0c0.4,0,0.6-0.2,0.8-0.4C345,660,343.8,667.6,342.9,672.9z M348.4,631.9c-0.6,5.3-1.1,10.1-1.7,14.6
		c-5.5-21.3-16.2-33.3-16.9-33.8c-0.4-0.6-1.3-0.8-1.9-0.6c-0.6,0.2-1.3,0.6-1.5,1.3c0,0.2-5.3,14.6-10.8,23
		c-0.2-1.1-0.4-2.3-0.6-3.6c-1.5-7.4-3.2-16.5,0.8-21.5c2.1-2.7,5.9-4,11.4-4.2c0.4,0,10.6,0,16.7,6.8
		C347.8,618.2,349.3,624.1,348.4,631.9z"/>
<path d="M327.7,315.4v-15.8c0-0.6-0.2-1.3-0.8-1.7c-0.4-0.4-1.1-0.6-1.7-0.4l-47.5,8.4c-1.1,0.2-1.7,1.1-1.7,2.1
		v15.8c0,0.6,0.2,1.3,0.8,1.7c0.4,0.4,0.8,0.4,1.3,0.4c0.2,0,0.2,0,0.4,0l47.5-8.4C327.1,317.3,327.7,316.4,327.7,315.4z
		 M323.5,313.7l-43.3,7.6v-11.6l43.3-7.6V313.7z"/>
<path d="M278.1,301.2c0.2,0,0.2,0,0.4,0l47.5-8.4c1.1-0.2,1.7-1.1,1.7-2.1v-15.8c0-0.6-0.2-1.3-0.8-1.7
		c-0.4-0.4-1.1-0.6-1.7-0.4l-47.5,8.4c-1.1,0.2-1.7,1.1-1.7,2.1v15.8c0,0.6,0.2,1.3,0.8,1.7C277.1,301,277.7,301.2,278.1,301.2z
		 M280.3,285.2l43.3-7.6v11.6l-43.3,7.6V285.2z"/>
<path d="M278.1,276.6c0.2,0,0.2,0,0.4,0l47.5-8.4c1.1-0.2,1.7-1.1,1.7-2.1v-15.8c0-0.6-0.2-1.3-0.8-1.7
		c-0.4-0.4-1.1-0.6-1.7-0.4l-47.5,8.4c-1.1,0.2-1.7,1.1-1.7,2.1v15.8c0,0.6,0.2,1.3,0.8,1.7C277.1,276.6,277.7,276.6,278.1,276.6z
		 M280.3,260.5l43.3-7.6v11.6l-43.3,7.6V260.5z"/>
<path d="M606.5,357.8c-5.9-5.3-14.4-4.2-14.8-4.2c-1.1,0.2-1.9,1.3-1.9,2.3c0.2,1.1,1.3,1.9,2.3,1.9
		c0,0,7-0.8,11.4,3.2c2.7,2.3,4,5.9,4,10.8c0,4.6-1.3,8.2-3.8,10.6c-3.8,3.6-9.3,3.4-9.3,3.4H336.8c-1.1,0-2.1,0.8-2.1,2.1
		c0,1.3,0.8,2.1,2.1,2.1h257.7c0,0,0.2,0,0.4,0c1.7,0,7.4-0.2,11.8-4.4c3.4-3.2,5.1-7.8,5.1-13.7C612,365.8,610.1,361,606.5,357.8z"
		/>
<path d="M532.7,414.1H74.3c-0.2,0-7.2-0.2-12.2,4.4c-3.4,3.2-5.1,7.8-5.1,13.7c0,6.1,1.9,10.8,5.5,13.9
		c5.9,5.3,14.4,4.2,14.8,4.2c1.1-0.2,1.9-1.3,1.9-2.3c-0.2-1.1-1.3-1.9-2.3-1.9c0,0-7,0.8-11.4-3.2c-2.7-2.3-4-5.9-4-10.8
		c0-4.6,1.3-8.2,3.8-10.6c3.8-3.6,9.3-3.4,9.3-3.4h458.6c0,0,5.5-0.2,9.3,3.4c2.5,2.3,3.8,5.9,3.8,10.6c0,4.9-1.3,8.4-4,10.8
		c-4.4,4-11.4,3.2-11.4,3.2c-1.3-0.2-2.1,0.6-2.3,1.9c-0.2,1.1,0.6,2.1,1.9,2.3c0,0,0.8,0.2,2.1,0.2c3,0,8.4-0.6,12.7-4.2
		c3.6-3.2,5.5-7.8,5.5-13.9c0-5.9-1.7-10.6-5.1-13.7C539.8,413.7,532.9,414.1,532.7,414.1z"/>
<path d="M509.4,551.3h-410c-0.2,0-7.2-0.2-12.2,4.4c-3.4,3.2-5.1,7.8-5.1,13.7c0,6.1,1.9,10.8,5.5,13.9
		c5.9,5.3,14.4,4.2,14.8,4.2c1.1-0.2,1.9-1.3,1.9-2.3c-0.2-1.1-1.3-1.9-2.3-1.9c0,0-7,0.8-11.4-3.2c-2.7-2.3-4-5.9-4-10.8
		c0-4.6,1.3-8.2,3.8-10.6c3.8-3.6,9.3-3.4,9.3-3.4h410.3c0,0,5.5-0.2,9.3,3.4c2.5,2.3,3.8,5.9,3.8,10.6c0,4.9-1.3,8.4-4,10.8
		c-4.4,4-11.4,3.2-11.4,3.2c-1.3-0.2-2.1,0.6-2.3,1.9c-0.2,1.1,0.6,2.1,1.9,2.3c0,0,0.8,0.2,2.1,0.2c3,0,8.4-0.6,12.7-4.2
		c3.6-3.2,5.5-7.8,5.5-13.9c0-5.9-1.7-10.6-5.1-13.7C516.6,551.1,509.6,551.3,509.4,551.3z"/>
<path d="M231.9,583.6h-80.8c-1.1,0-2.1,0.8-2.1,2.1c0,1.3,0.8,2.1,2.1,2.1h80.8c0,0,5.5-0.2,9.3,3.4
		c2.5,2.3,3.8,5.9,3.8,10.6c0,4.9-1.3,8.4-4,10.8c-4.4,4-11.4,3.2-11.4,3.2c-1.1-0.2-2.1,0.6-2.3,1.9c-0.2,1.1,0.6,2.1,1.9,2.3
		c0,0,0.8,0.2,2.1,0.2c3,0,8.4-0.6,12.7-4.2c3.6-3.2,5.5-7.8,5.5-13.9c0-5.9-1.7-10.6-5.1-13.7C239.1,583.2,232.1,583.6,231.9,583.6
		z"/>
<path d="M457.1,583.6h-80.6c-0.2,0-7.2-0.2-12.2,4.4c-3.4,3.2-5.1,7.8-5.1,13.7c0,6.1,1.9,10.8,5.5,13.9
		c4.2,3.8,9.7,4.2,12.7,4.2c1.3,0,1.9,0,2.1-0.2c1.1-0.2,1.9-1.3,1.9-2.3c-0.2-1.1-1.3-1.9-2.3-1.9c0,0-7,0.8-11.4-3.2
		c-2.7-2.3-4-5.9-4-10.8c0-4.6,1.3-8.2,3.8-10.6c3.8-3.6,9.3-3.4,9.3-3.4h80.8c1.1,0,2.1-0.8,2.1-2.1
		C459.6,584.2,458.2,583.6,457.1,583.6z"/>
<path d="M277.3,387.8c0-1.1-0.8-2.1-2.1-2.1H17.3c0,0-5.5,0.2-9.3-3.4c-2.5-2.3-3.8-5.9-3.8-10.6
		c0-4.9,1.3-8.4,4-10.8c4.4-4,11.4-3.2,11.4-3.2c1.1,0.2,2.1-0.6,2.3-1.9c0.2-1.1-0.6-2.1-1.9-2.3c-0.4,0-8.9-1.1-14.8,4.2
		c-3.4,3.2-5.3,8-5.3,13.9c0,5.9,1.7,10.6,5.1,13.7c4.4,4.2,10.3,4.4,11.8,4.4c0.2,0,0.4,0,0.4,0h257.9
		C276.2,389.9,277.3,389,277.3,387.8z"/>
<path d="M213.6,132.2c1.9,3.4,4,7.4,6.3,12.2c1.1,2.1,2.1,4.2,3.2,6.1c4.9,9.7,9.3,17.9,9.3,24.9
		c0,3.6-1.1,6.5-3.2,8.4c-1.9,1.7-4.6,2.7-7.8,2.7c-6.1,0-11.2-5.1-11.2-11.2c0-1.1-0.8-2.1-2.1-2.1s-2.1,0.8-2.1,2.1
		c0,8.4,6.8,15.2,15.2,15.2c4.2,0,8-1.3,10.8-3.8c3-2.7,4.6-6.8,4.6-11.4c0-8-4.4-16.7-9.7-26.8c-1.1-1.9-2.1-4-3.2-6.1
		c-2.5-4.9-4.6-8.9-6.3-12.2c-4-7.6-6.5-12-7.2-17.7c-0.4-3,0.2-5.5,1.9-7.2c1.9-2.3,5.3-3.6,9.1-3.6c6.1,0,11.2,5.1,11.2,11.2
		c0,1.1,0.8,2.1,2.1,2.1c1.1,0,2.1-0.8,2.1-2.1c0-8.4-6.8-15.2-15.2-15.2c-5.1,0-9.5,1.9-12.2,5.1c-2.5,2.7-3.6,6.3-3,10.6
		C206.6,119.3,209.1,124.2,213.6,132.2z"/>
<path d="M264,191.3c5.3,0,9.1-1.3,11.6-4c2.5-2.5,3.8-6.5,3.6-11.4c0-1.1-1.1-2.1-2.1-2.1s-2.1,1.1-2.1,2.1
		c0,3.8-0.6,6.8-2.3,8.4c-1.7,1.9-4.6,2.7-8.7,2.7c-6.1,0-11.2-5.1-11.2-11.2v-63.3c0-6.1,5.1-11.2,11.2-11.2
		c6.1,0,11.2,5.1,11.2,11.2c0,1.1,0.8,2.1,2.1,2.1c1.1,0,2.1-0.8,2.1-2.1c0-8.4-6.8-15.4-15.2-15.4c-8.4,0-15.2,7-15.2,15.4v63.3
		C248.8,184.3,255.6,191.3,264,191.3z"/>
<path d="M293.8,190.2c1.1,0,2.1-0.8,2.1-2.1v-51.9H318v51.7c0,1.1,0.8,2.1,2.1,2.1s2.1-0.8,2.1-2.1v-75.3
		c0-8.4-6.8-15.2-15.2-15.2s-15.2,6.8-15.2,15.2v75.6C291.6,189.4,292.5,190.2,293.8,190.2z M306.8,101.6c6.1,0,11.2,5.1,11.2,11.2
		v19.4h-22.2v-19.6C295.9,106.5,300.7,101.6,306.8,101.6z"/>
<path d="M375.6,190.2c1.1,0,2.1-0.8,2.1-2.1v-51.9h22.2v51.7c0,1.1,0.8,2.1,2.1,2.1c1.1,0,2.1-0.8,2.1-2.1v-75.3
		c0-8.4-6.8-15.2-15.2-15.2c-8.4,0-15.2,6.8-15.2,15.2v75.6C373.5,189.4,374.4,190.2,375.6,190.2z M388.7,101.6
		c6.1,0,11.2,5.1,11.2,11.2v19.4h-22.2v-19.6C377.8,106.5,382.6,101.6,388.7,101.6z"/>
<path d="M340.4,190h20.3c1.1,0,2.1-0.8,2.1-2.1c0-1.1-0.8-2.1-2.1-2.1h-18.1V99.5c0-1.1-0.8-2.1-2.1-2.1
		c-1.3,0-2.1,0.8-2.1,2.1v88.4C338.3,189.2,339.1,190,340.4,190z"/>
<path d="M463,445.8c1.1,0,2.1-0.8,2.1-2.1c0-1.3-0.8-2.1-2.1-2.1h-17.5c-1.1,0-2.1,0.8-2.1,2.1v84.8
		c0,1.1,0.8,2.1,2.1,2.1h17.7c1.1,0,2.1-0.8,2.1-2.1s-0.8-2.1-2.1-2.1h-15.6v-38.2h14.6c1.1,0,2.1-0.8,2.1-2.1
		c0-1.3-0.8-2.1-2.1-2.1h-14.6v-38.2L463,445.8L463,445.8z"/>
<path d="M125.1,530.2c4.6-2.1,12.5-7.8,12.5-22.4v-45.2c0-14.6-7.8-20.3-12.5-22.4c-2.3-1.1-4.9-1.7-7.2-1.7
		c-6.5,0-11,4-11,10.1v72.6c0,6.1,4.2,10.1,11,10.1C120.3,531.9,122.8,531.3,125.1,530.2z M111.2,521.8v-72.6c0-5.3,4.6-5.9,6.8-5.9
		c1.9,0,3.8,0.4,5.5,1.3c4.4,2.1,9.9,7,9.9,18.6v45.2c0,11.6-5.5,16.5-9.9,18.6c-1.7,0.8-3.8,1.3-5.5,1.3
		C115.9,527.7,111.2,527.1,111.2,521.8z"/>
<path d="M422.5,530.2c4.6-2.1,12.5-7.8,12.5-22.4v-45.2c0-14.6-7.8-20.3-12.5-22.4c-2.3-1.1-4.9-1.7-7.2-1.7
		c-6.5,0-11,4-11,10.1v72.6c0,6.1,4.2,10.1,11,10.1C417.6,531.9,420.2,531.3,422.5,530.2z M408.6,521.8v-72.6c0-5.3,4.6-5.9,6.8-5.9
		c1.9,0,3.8,0.4,5.5,1.3c4.4,2.1,9.9,7,9.9,18.6v45.2c0,11.6-5.5,16.5-9.9,18.6c-1.7,0.8-3.8,1.3-5.5,1.3
		C413.2,527.7,408.6,527.1,408.6,521.8z"/>
<path d="M507.3,462.9c0-14.6-7.8-20.3-12.5-22.4c-4.9-2.1-10.3-2.1-13.9,0.2c-2.7,1.7-4.2,4.6-4.2,8.4v78.5
		c0,1.1,0.8,2.1,2.1,2.1c1.3,0,2.1-0.8,2.1-2.1V487c0,0,0,0,0.2,0c4.9,0,8.9-0.6,12.5-2.3l12.2,43.5c0.2,0.8,1.1,1.5,2.1,1.5
		c0.2,0,0.4,0,0.6,0c1.1-0.2,1.7-1.5,1.5-2.5l-12.2-43.9c0-0.2-0.2-0.4-0.2-0.4c0.8-0.6,1.7-1.3,2.5-2.1
		C507.1,473.4,507.3,463.3,507.3,462.9z M481.2,482.7L481.2,482.7l-0.2-33.6c0-2.3,0.8-3.8,2.3-4.9c2.3-1.5,6.3-1.5,9.9,0.2
		c4.4,2.1,9.9,7,9.9,18.4c0,0-0.2,8.9-6.3,14.8C493.2,481,487.9,482.9,481.2,482.7C481.4,482.7,481.4,482.7,481.2,482.7z"/>
<path d="M235.3,227.4v102.1c0,0.8,0.4,1.5,1.1,1.9l68.2,37.1c0.2,0.2,0.6,0.2,1.1,0.2s0.8-0.2,1.3-0.4l60.1-40.5
		c0.6-0.4,0.8-1.1,0.8-1.7v-30.6c21.3-16,42.2-20.5,47.7-21.3c2.1,5.9,7.6,10.3,14.1,11c-1.3,0.8-2.3,1.9-3.6,3l-0.2,0.2
		c-0.4,0.6-11.8,15,6.3,39.3c0.6,0.8,2.1,1.1,3,0.4c0.8-0.6,1.1-2.1,0.4-3c-15.6-20.7-7.4-32.7-6.5-34c9.1-8.4,20.9-12.9,33.6-12.5
		c12.5,0.4,24.1,5.7,32.7,14.8c6.8,7.2,10.3,16.7,9.9,26.6s-4.4,19-11.8,25.7c-5.7,5.3-13.1,8-20.7,7.8c0,0,0,0-0.2,0
		c-0.2,0-0.2,0-0.2,0c-7.8-0.2-15-3.6-20.3-9.3c-8.7-9.3-8.2-23.8,1.1-32.5c7.2-6.8,18.6-6.3,25.3,0.8c2.5,2.7,3.8,6.3,3.8,9.9
		c-0.2,3.8-1.7,7.2-4.4,9.7c-4.4,4-11.2,3.8-15.2-0.4c-1.5-1.7-2.3-3.6-2.1-5.9c0-2.1,1.1-4.2,2.5-5.7c2.5-2.3,6.3-2.1,8.7,0.2
		c0.8,0.8,2.1,0.8,3,0s0.8-2.1,0-3c-3.8-4.2-10.3-4.4-14.6-0.4c-2.3,2.3-3.8,5.3-4,8.7c-0.2,3.4,1.1,6.5,3.4,8.9
		c5.7,5.9,15.2,6.3,21.1,0.6c3.6-3.4,5.5-7.8,5.7-12.7c0.2-4.9-1.5-9.5-4.9-13.1c-8.4-8.9-22.4-9.5-31.2-1.1
		c-5.3,4.9-8.4,11.6-8.7,19c-0.2,7.2,2.3,14.1,7.4,19.4c1.5,1.5,3,3,4.6,4.2l-0.2,0.2l-5.9,16.5c-0.4,1.1,0.2,2.3,1.3,2.7
		c0.2,0,0.4,0.2,0.6,0.2c0.8,0,1.7-0.6,1.9-1.5l5.7-16c4,2.1,8.2,3.6,12.9,4l-1.3,12c-0.2,1.1,0.6,2.1,1.9,2.3h0.2
		c1.1,0,1.9-0.8,2.1-1.9l1.5-12.5c8.2-0.2,16-3.4,21.9-9.1c8-7.6,12.7-17.7,13.1-28.7s-3.6-21.5-11.2-29.5
		c-9.3-9.9-21.9-15.6-35.7-16.2c-5.9-0.2-11.6,0.6-16.9,2.3c1.3-2.3,2.1-5.3,2.1-8c0-9.3-7.4-16.7-16.7-16.7
		c-9.3,0-16.7,7.4-16.7,16.7c0,0.4,0,0.8,0,1.5c-5.9,1.1-25.7,5.3-46.8,20.3v-62.3c0-1.1-0.8-2.1-2.1-2.1H237
		C236.4,225.3,235.3,226.3,235.3,227.4z M431.4,256.1c7,0,12.5,5.7,12.5,12.5c0,7-5.7,12.5-12.5,12.5c-6.8,0-12.5-5.7-12.5-12.5
		C418.7,261.8,424.4,256.1,431.4,256.1z M239.5,229.5h124.1v63.9c-4.9,3.8-9.9,8.2-14.6,13.5c-0.8,0.8-0.6,2.1,0.2,3
		c0.4,0.4,0.8,0.6,1.5,0.6s1.1-0.2,1.5-0.6c3.8-4,7.6-7.8,11.6-11v26.2l-58.2,39.3l-66.1-36.1V229.5z"/>
<path d="M93.5,363.3c-5.1,0.6-8.4,0.8-8.4,0.8c-1.1,0-2.1,1.1-1.9,2.1c0,1.1,1.1,2.1,2.1,2.1c3.2,0,6.1-0.2,8.9-0.8
		c13.7-1.9,39.5-7.2,48.1-21.7c2.7,3.4,5.9,6.3,9.5,8.9c0.4,0.2,0.8,0.4,1.3,0.4c0.6,0,1.3-0.4,1.7-0.8c0.6-1.1,0.4-2.3-0.6-3
		c-18.6-12.7-23.4-38.4-10.8-57c12.7-18.6,38.4-23.4,57-10.8c1.1,0.6,2.3,0.4,3-0.6c0.6-1.1,0.4-2.3-0.6-3
		c-9.9-6.8-21.9-9.3-33.8-7.2c-2.1,0.4-4,0.8-5.9,1.5c0-0.2,0.2-0.4,0.2-0.6l1.3-42.4l31.9,25.7l-23.2,0.8c-1.1,0-2.1,1.1-2.1,2.1
		s1.1,2.1,2.1,2.1l28.9-1.1c0.8,0,1.7-0.6,1.9-1.5c0.2-0.8,0-1.7-0.6-2.3l-39.9-31.7c-0.6-0.4-1.5-0.6-2.1-0.2
		c-0.6,0.4-1.3,1.1-1.3,1.9l-1.3,46.6c0,0.8,0.4,1.5,1.1,1.9c-8,3.4-15,8.9-20,16.2c-4.9,7-7.2,15-7.8,22.8
		c-0.2,0.2-0.4,0.6-0.6,1.1C131.3,316.2,123.2,356.7,93.5,363.3z M139.5,342.6c-0.4,0.2-0.8,0.4-1.1,0.8
		c-4.9,8.4-16.7,13.5-28.1,16.5c12.2-9.3,19-24.1,22.4-33.8C133.8,332.1,136.1,337.5,139.5,342.6z"/>
<path d="M180.2,516.9v-62.7c0-8.4-7-15.4-15.4-15.4s-15.4,7-15.4,15.4v62.7c0,8.4,7,15.4,15.4,15.4
		C173.5,532.3,180.2,525.4,180.2,516.9z M153.8,516.9v-62.7c0-6.1,5.1-11.2,11.2-11.2c6.1,0,11.2,5.1,11.2,11.2v62.7
		c0,6.1-5.1,11.2-11.2,11.2C158.9,528.1,153.8,523,153.8,516.9z"/>
<path d="M192,439.5c-1.1,0-2.1,0.8-2.1,2.1v75.3c0,8.4,7,15.4,15.4,15.4c5.7,0,10.6-3.2,13.3-7.6
		c2.7,4.6,7.6,7.6,13.3,7.6c8.4,0,15.4-7,15.4-15.4v-73.9c0-1.1-0.8-2.1-2.1-2.1s-2.1,0.8-2.1,2.1v73.9c0,6.1-5.1,11.2-11.2,11.2
		c-6.1,0-11.2-5.1-11.2-11.2c0,0,0,0,0-0.2v-73.9c0-1.1-0.8-2.1-2.1-2.1s-2.1,0.8-2.1,2.1v73.9c0,6.1-5.1,11.2-11.2,11.2
		c-6.1,0-11.2-5.1-11.2-11.2v-75.3C194.2,440.5,193.3,439.5,192,439.5z"/>
<path d="M285.1,532.3c1.1,0,2.1-0.8,2.1-2.1v-75.3c0-8.4-7-15.4-15.4-15.4s-15.4,7-15.4,15.4v73.9
		c0,1.1,0.8,2.1,2.1,2.1s2.1-0.8,2.1-2.1v-73.9c0-6.1,5.1-11.2,11.2-11.2c6.1,0,11.2,5.1,11.2,11.2v75.3
		C283,531.3,284.1,532.3,285.1,532.3z"/>
<path d="M393.4,532.3c1.1,0,2.1-0.8,2.1-2.1v-75.3c0-8.4-7-15.4-15.4-15.4s-15.4,7-15.4,15.4v73.9
		c0,1.1,0.8,2.1,2.1,2.1c1.3,0,2.1-0.8,2.1-2.1v-73.9c0-6.1,5.1-11.2,11.2-11.2c6.1,0,11.2,5.1,11.2,11.2v75.3
		C391.3,531.3,392.1,532.3,393.4,532.3z"/>
<path d="M325.2,439.5c-1.1,0-2.1,0.8-2.1,2.1v75.3c0,8.4,7,15.4,15.4,15.4s15.4-7,15.4-15.4v-73.9
		c0-1.1-0.8-2.1-2.1-2.1c-1.1,0-2.1,0.8-2.1,2.1v73.9c0,6.1-5.1,11.2-11.2,11.2c-6.1,0-11.2-5.1-11.2-11.2v-75.3
		C327.3,440.5,326.5,439.5,325.2,439.5z"/>
<path d="M169.9,360.8l25.5-42c0.4-0.6,0.4-1.5,0-2.1c-0.4-0.6-1.1-1.1-1.7-1.1l-33.6-1.1c-1.3,0-2.1,0.8-2.1,2.1
		c0,1.1,0.8,2.1,2.1,2.1l30,0.8l-25.7,42c-0.4,0.6-0.4,1.5,0,2.1c0.4,0.6,1.1,1.1,1.9,1.1l36.9,0.6l0,0c1.1,0,2.1-0.8,2.1-2.1
		c0-1.1-0.8-2.1-2.1-2.1L169.9,360.8z"/>
<path d="M54.7,317.7c0.8,5.9,3.4,7.2,5.3,7.2c2.7,0,4.9-3,5.1-6.8c0.2-4.9,8.7-44.1,11.6-49.8
		c2.1-4,20.5-17.9,30.4-25.5c4.4-3.4,8-5.9,9.5-7.4c4-3.4,3.4-6.3,3-7.6c-0.8-2.1-3-3.6-5.5-3.6c-1.3,0-2.7,0.4-3.8,1.1l-1.3,0.8
		c-19.6,10.3-44.1,24.5-49,32.7c-6.1,10.1-5.3,53.6-5.3,58.7C54.7,317.5,54.7,317.5,54.7,317.7z M60.8,317.9c0,1.3-0.4,2.1-0.8,2.5
		c-0.2-0.4-0.8-1.3-1.1-3.4c0-3.8-0.2-9.7,0-16l4.9,0.6C62,309.5,61,316.2,60.8,317.9z M110.8,229.9l1.1-0.6
		c1.5-0.8,3.2-0.6,3.6,0.2c0.2,0.4-0.2,1.7-1.7,3c-1.5,1.3-5.1,4-9.3,7.2c-0.6,0.6-1.5,1.1-2.1,1.5l-3-5.3
		C103,233.9,106.8,232,110.8,229.9z M63.5,260.9c2.7-4.4,14.1-12.7,32.3-22.8l3.2,5.7c-13.5,10.3-24.1,18.8-26.2,22.6
		c-1.9,3.6-5.5,18.1-8.2,31l-5.5-0.6C59.3,282.3,60.6,265.8,63.5,260.9z"/>
<path d="M512.6,240.9c4.2,2.5,8,5.5,11.4,8.7l-4.6,3c-1.1,0.6-1.3,1.9-0.6,3c0.4,0.6,1.1,1.1,1.7,1.1
		c0.4,0,0.8,0,1.1-0.4l5.5-3.4c3,3.2,5.5,6.5,7.8,9.9l-9.9,3.8c-1.1,0.4-1.7,1.7-1.3,2.7c0.4,0.8,1.1,1.3,1.9,1.3
		c0.2,0,0.4,0,0.8-0.2l10.3-4c0,0,0.2,0,0.2-0.2c3.2,5.3,5.5,10.8,7.4,16l-15.2,3c-1.1,0.2-1.9,1.3-1.7,2.5c0.2,1.1,1.1,1.7,2.1,1.7
		c0.2,0,0.2,0,0.4,0l15.6-3.2c1.5,4.9,2.5,9.3,3.4,13.5l-18.8,2.3c-1.1,0.2-1.9,1.3-1.9,2.3c0.2,1.1,1.1,1.9,2.1,1.9h0.2l19-2.5
		c1.5,8.9,1.5,15,1.5,15.2c0,1.1,0.8,2.1,2.1,2.1l0,0c1.1,0,2.1-0.8,2.1-2.1c0-0.2,0-6.8-1.5-16l19.8-7.6c1.1-0.4,1.7-1.7,1.3-2.7
		s-1.7-1.7-2.7-1.3l-19.2,7.4c-0.8-4.2-1.9-9.1-3.6-13.9l13.7-8.7c1.1-0.6,1.3-1.9,0.6-3s-1.9-1.3-3-0.6l-12.9,8
		c-1.9-5.3-4.4-10.8-7.6-16.2l8.2-5.3c1.1-0.6,1.3-1.9,0.6-3c-0.6-1.1-1.9-1.3-3-0.6l-8.2,5.3c-2.3-3.6-5.1-7-8-10.3l5.5-4.4
		c0.8-0.6,1.1-2.1,0.2-3c-0.8-0.8-2.1-1.1-3-0.2l-5.7,4.9c-3.8-3.8-8.2-7.2-13.1-10.1c-1.1-0.6-2.3-0.2-3,0.8
		C511.3,239,511.8,240.3,512.6,240.9z"/>
</svg>
